<svg xmlns="http://www.w3.org/2000/svg" viewBox="0 0 100 100"><polygon points="50.00,32.19 69.34,38.10 50.00,36.00" fill="#66e2f4" stroke="#66e2f4" stroke-width="0.5" stroke-linejoin="round"/><polygon points="30.66,38.10 50.00,36.00 50.00,38.77" fill="#5ed0e0" stroke="#5ed0e0" stroke-width="0.5" stroke-linejoin="round"/><polygon points="32.36,34.11 50.00,36.00 30.66,38.10" fill="#6df4ff" stroke="#6df4ff" stroke-width="0.5" stroke-linejoin="round"/><polygon points="50.00,36.00 69.34,38.10 65.93,40.51" fill="#5ed0e0" stroke="#5ed0e0" stroke-width="0.5" stroke-linejoin="round"/><polygon points="32.36,34.11 50.00,32.19 50.00,36.00" fill="#6df4ff" stroke="#6df4ff" stroke-width="0.5" stroke-linejoin="round"/><polygon points="50.00,36.00 65.93,40.51 50.00,38.77" fill="#5ed0e0" stroke="#5ed0e0" stroke-width="0.5" stroke-linejoin="round"/><polygon points="50.00,32.19 67.64,34.11 69.34,38.10" fill="#66e2f4" stroke="#66e2f4" stroke-width="0.5" stroke-linejoin="round"/><polygon points="30.66,38.10 50.00,38.77 34.07,40.51" fill="#5ed0e0" stroke="#5ed0e0" stroke-width="0.5" stroke-linejoin="round"/><polygon points="50.00,38.77 67.64,34.11 50.00,32.19" fill="#75ffff" stroke="#75ffff" stroke-width="0.5" stroke-linejoin="round"/><polygon points="34.07,40.51 50.00,38.77 50.00,32.19" fill="#6ef8ff" stroke="#6ef8ff" stroke-width="0.5" stroke-linejoin="round"/><polygon points="34.07,40.51 50.00,32.19 32.36,34.11" fill="#6ef8ff" stroke="#6ef8ff" stroke-width="0.5" stroke-linejoin="round"/><polygon points="50.00,38.77 65.93,40.51 67.64,34.11" fill="#75ffff" stroke="#75ffff" stroke-width="0.5" stroke-linejoin="round"/><polygon points="67.64,34.11 83.51,43.86 69.34,38.10" fill="#61d6e7" stroke="#61d6e7" stroke-width="0.5" stroke-linejoin="round"/><polygon points="16.49,43.86 30.66,38.10 34.07,40.51" fill="#5ed0e0" stroke="#5ed0e0" stroke-width="0.5" stroke-linejoin="round"/><polygon points="69.34,38.10 77.59,45.25 65.93,40.51" fill="#5ed0e0" stroke="#5ed0e0" stroke-width="0.5" stroke-linejoin="round"/><polygon points="19.45,39.36 32.36,34.11 30.66,38.10" fill="#74ffff" stroke="#74ffff" stroke-width="0.5" stroke-linejoin="round"/><polygon points="22.41,45.25 34.07,40.51 32.36,34.11" fill="#67e6f9" stroke="#67e6f9" stroke-width="0.5" stroke-linejoin="round"/><polygon points="65.93,40.51 80.55,39.36 67.64,34.11" fill="#7affff" stroke="#7affff" stroke-width="0.5" stroke-linejoin="round"/><polygon points="69.34,38.10 83.51,43.86 77.59,45.25" fill="#5ed0e0" stroke="#5ed0e0" stroke-width="0.5" stroke-linejoin="round"/><polygon points="19.45,39.36 30.66,38.10 16.49,43.86" fill="#74ffff" stroke="#74ffff" stroke-width="0.5" stroke-linejoin="round"/><polygon points="16.49,43.86 34.07,40.51 22.41,45.25" fill="#5ed0e0" stroke="#5ed0e0" stroke-width="0.5" stroke-linejoin="round"/><polygon points="67.64,34.11 80.55,39.36 83.51,43.86" fill="#61d6e7" stroke="#61d6e7" stroke-width="0.5" stroke-linejoin="round"/><polygon points="22.41,45.25 32.36,34.11 19.45,39.36" fill="#67e6f9" stroke="#67e6f9" stroke-width="0.5" stroke-linejoin="round"/><polygon points="65.93,40.51 77.59,45.25 80.55,39.36" fill="#7affff" stroke="#7affff" stroke-width="0.5" stroke-linejoin="round"/><polygon points="11.31,51.73 16.49,43.86 22.41,45.25" fill="#5ed0e0" stroke="#5ed0e0" stroke-width="0.5" stroke-linejoin="round"/><polygon points="83.51,43.86 81.86,51.73 77.59,45.25" fill="#5ed0e0" stroke="#5ed0e0" stroke-width="0.5" stroke-linejoin="round"/><polygon points="80.55,39.36 88.69,51.73 83.51,43.86" fill="#60d3e3" stroke="#60d3e3" stroke-width="0.5" stroke-linejoin="round"/><polygon points="14.72,46.53 19.45,39.36 16.49,43.86" fill="#79ffff" stroke="#79ffff" stroke-width="0.5" stroke-linejoin="round"/><polygon points="18.14,51.73 22.41,45.25 19.45,39.36" fill="#62d8e9" stroke="#62d8e9" stroke-width="0.5" stroke-linejoin="round"/><polygon points="77.59,45.25 85.28,46.53 80.55,39.36" fill="#7cffff" stroke="#7cffff" stroke-width="0.5" stroke-linejoin="round"/><polygon points="83.51,43.86 88.69,51.73 81.86,51.73" fill="#5ed0e0" stroke="#5ed0e0" stroke-width="0.5" stroke-linejoin="round"/><polygon points="14.72,46.53 16.49,43.86 11.31,51.73" fill="#79ffff" stroke="#79ffff" stroke-width="0.5" stroke-linejoin="round"/><polygon points="11.31,51.73 22.41,45.25 18.14,51.73" fill="#5ed0e0" stroke="#5ed0e0" stroke-width="0.5" stroke-linejoin="round"/><polygon points="77.59,45.25 81.86,51.73 85.28,46.53" fill="#7cffff" stroke="#7cffff" stroke-width="0.5" stroke-linejoin="round"/><polygon points="80.55,39.36 85.28,46.53 88.69,51.73" fill="#60d3e3" stroke="#60d3e3" stroke-width="0.5" stroke-linejoin="round"/><polygon points="18.14,51.73 19.45,39.36 14.72,46.53" fill="#62d8e9" stroke="#62d8e9" stroke-width="0.5" stroke-linejoin="round"/><polygon points="88.69,51.73 77.59,58.21 81.86,51.73" fill="#5ed0e0" stroke="#5ed0e0" stroke-width="0.5" stroke-linejoin="round"/><polygon points="22.41,58.21 18.14,51.73 14.72,46.53" fill="#60d3e3" stroke="#60d3e3" stroke-width="0.5" stroke-linejoin="round"/><polygon points="16.49,59.60 11.31,51.73 18.14,51.73" fill="#5ed0e0" stroke="#5ed0e0" stroke-width="0.5" stroke-linejoin="round"/><polygon points="85.28,46.53 83.51,59.60 88.69,51.73" fill="#62d8e9" stroke="#62d8e9" stroke-width="0.5" stroke-linejoin="round"/><polygon points="81.86,51.73 80.55,53.71 85.28,46.53" fill="#79ffff" stroke="#79ffff" stroke-width="0.5" stroke-linejoin="round"/><polygon points="19.45,53.71 14.72,46.53 11.31,51.73" fill="#7cffff" stroke="#7cffff" stroke-width="0.5" stroke-linejoin="round"/><polygon points="16.49,59.60 18.14,51.73 22.41,58.21" fill="#5ed0e0" stroke="#5ed0e0" stroke-width="0.5" stroke-linejoin="round"/><polygon points="88.69,51.73 83.51,59.60 77.59,58.21" fill="#5ed0e0" stroke="#5ed0e0" stroke-width="0.5" stroke-linejoin="round"/><polygon points="81.86,51.73 77.59,58.21 80.55,53.71" fill="#79ffff" stroke="#79ffff" stroke-width="0.5" stroke-linejoin="round"/><polygon points="22.41,58.21 14.72,46.53 19.45,53.71" fill="#60d3e3" stroke="#60d3e3" stroke-width="0.5" stroke-linejoin="round"/><polygon points="19.45,53.71 11.31,51.73 16.49,59.60" fill="#7cffff" stroke="#7cffff" stroke-width="0.5" stroke-linejoin="round"/><polygon points="85.28,46.53 80.55,53.71 83.51,59.60" fill="#62d8e9" stroke="#62d8e9" stroke-width="0.5" stroke-linejoin="round"/><polygon points="83.51,59.60 65.93,62.96 77.59,58.21" fill="#5ed0e0" stroke="#5ed0e0" stroke-width="0.5" stroke-linejoin="round"/><polygon points="34.07,62.96 22.41,58.21 19.45,53.71" fill="#61d6e7" stroke="#61d6e7" stroke-width="0.5" stroke-linejoin="round"/><polygon points="30.66,65.36 16.49,59.60 22.41,58.21" fill="#5ed0e0" stroke="#5ed0e0" stroke-width="0.5" stroke-linejoin="round"/><polygon points="77.59,58.21 67.64,58.96 80.55,53.71" fill="#74ffff" stroke="#74ffff" stroke-width="0.5" stroke-linejoin="round"/><polygon points="32.36,58.96 19.45,53.71 16.49,59.60" fill="#7affff" stroke="#7affff" stroke-width="0.5" stroke-linejoin="round"/><polygon points="80.55,53.71 69.34,65.36 83.51,59.60" fill="#67e6f9" stroke="#67e6f9" stroke-width="0.5" stroke-linejoin="round"/><polygon points="77.59,58.21 65.93,62.96 67.64,58.96" fill="#74ffff" stroke="#74ffff" stroke-width="0.5" stroke-linejoin="round"/><polygon points="30.66,65.36 22.41,58.21 34.07,62.96" fill="#5ed0e0" stroke="#5ed0e0" stroke-width="0.5" stroke-linejoin="round"/><polygon points="83.51,59.60 69.34,65.36 65.93,62.96" fill="#5ed0e0" stroke="#5ed0e0" stroke-width="0.5" stroke-linejoin="round"/><polygon points="34.07,62.96 19.45,53.71 32.36,58.96" fill="#61d6e7" stroke="#61d6e7" stroke-width="0.5" stroke-linejoin="round"/><polygon points="32.36,58.96 16.49,59.60 30.66,65.36" fill="#7affff" stroke="#7affff" stroke-width="0.5" stroke-linejoin="round"/><polygon points="80.55,53.71 67.64,58.96 69.34,65.36" fill="#67e6f9" stroke="#67e6f9" stroke-width="0.5" stroke-linejoin="round"/><polygon points="50.00,64.69 34.07,62.96 32.36,58.96" fill="#66e2f4" stroke="#66e2f4" stroke-width="0.5" stroke-linejoin="round"/><polygon points="69.34,65.36 50.00,64.69 65.93,62.96" fill="#5ed0e0" stroke="#5ed0e0" stroke-width="0.5" stroke-linejoin="round"/><polygon points="65.93,62.96 50.00,64.69 50.00,60.88" fill="#6df4ff" stroke="#6df4ff" stroke-width="0.5" stroke-linejoin="round"/><polygon points="50.00,67.47 34.07,62.96 50.00,64.69" fill="#5ed0e0" stroke="#5ed0e0" stroke-width="0.5" stroke-linejoin="round"/><polygon points="65.93,62.96 50.00,60.88 67.64,58.96" fill="#6df4ff" stroke="#6df4ff" stroke-width="0.5" stroke-linejoin="round"/><polygon points="50.00,67.47 30.66,65.36 34.07,62.96" fill="#5ed0e0" stroke="#5ed0e0" stroke-width="0.5" stroke-linejoin="round"/><polygon points="50.00,64.69 32.36,58.96 50.00,60.88" fill="#66e2f4" stroke="#66e2f4" stroke-width="0.5" stroke-linejoin="round"/><polygon points="69.34,65.36 50.00,67.47 50.00,64.69" fill="#5ed0e0" stroke="#5ed0e0" stroke-width="0.5" stroke-linejoin="round"/><polygon points="50.00,60.88 32.36,58.96 30.66,65.36" fill="#75ffff" stroke="#75ffff" stroke-width="0.5" stroke-linejoin="round"/><polygon points="67.64,58.96 50.00,67.47 69.34,65.36" fill="#6ef8ff" stroke="#6ef8ff" stroke-width="0.5" stroke-linejoin="round"/><polygon points="67.64,58.96 50.00,60.88 50.00,67.47" fill="#6ef8ff" stroke="#6ef8ff" stroke-width="0.5" stroke-linejoin="round"/><polygon points="50.00,60.88 30.66,65.36 50.00,67.47" fill="#75ffff" stroke="#75ffff" stroke-width="0.5" stroke-linejoin="round"/><polygon points="53.05,52.98 31.03,36.64 53.05,37.78" fill="#c63025" stroke="#c63025" stroke-width="0.5" stroke-linejoin="round"/><polygon points="38.63,56.36 31.03,36.64 53.05,52.98" fill="#c63025" stroke="#c63025" stroke-width="0.5" stroke-linejoin="round"/><polygon points="53.05,52.98 53.05,37.78 82.85,42.29" fill="#c63025" stroke="#c63025" stroke-width="0.5" stroke-linejoin="round"/><polygon points="53.05,37.78 31.03,36.64 38.63,41.16" fill="#ff473a" stroke="#ff473a" stroke-width="0.5" stroke-linejoin="round"/><polygon points="38.63,41.16 31.03,36.64 38.63,56.36" fill="#f93d30" stroke="#f93d30" stroke-width="0.5" stroke-linejoin="round"/><polygon points="38.63,56.36 53.05,52.98 50.00,84.65" fill="#c63025" stroke="#c63025" stroke-width="0.5" stroke-linejoin="round"/><polygon points="61.37,58.84 53.05,52.98 82.85,42.29" fill="#c63025" stroke="#c63025" stroke-width="0.5" stroke-linejoin="round"/><polygon points="53.05,52.98 61.37,58.84 50.00,84.65" fill="#c63025" stroke="#c63025" stroke-width="0.5" stroke-linejoin="round"/><polygon points="53.05,37.78 61.37,43.64 82.85,42.29" fill="#ff4336" stroke="#ff4336" stroke-width="0.5" stroke-linejoin="round"/><polygon points="46.95,62.22 38.63,56.36 50.00,84.65" fill="#dc362a" stroke="#dc362a" stroke-width="0.5" stroke-linejoin="round"/><polygon points="61.37,43.64 61.37,58.84 82.85,42.29" fill="#c63025" stroke="#c63025" stroke-width="0.5" stroke-linejoin="round"/><polygon points="61.37,58.84 46.95,62.22 50.00,84.65" fill="#c63025" stroke="#c63025" stroke-width="0.5" stroke-linejoin="round"/><polygon points="38.63,41.16 50.00,15.35 53.05,37.78" fill="#ea392d" stroke="#ea392d" stroke-width="0.5" stroke-linejoin="round"/><polygon points="38.63,56.36 17.15,57.71 38.63,41.16" fill="#dd362a" stroke="#dd362a" stroke-width="0.5" stroke-linejoin="round"/><polygon points="53.05,37.78 50.00,15.35 61.37,43.64" fill="#c63025" stroke="#c63025" stroke-width="0.5" stroke-linejoin="round"/><polygon points="46.95,62.22 17.15,57.71 38.63,56.36" fill="#c63025" stroke="#c63025" stroke-width="0.5" stroke-linejoin="round"/><polygon points="46.95,47.02 50.00,15.35 38.63,41.16" fill="#ff4236" stroke="#ff4236" stroke-width="0.5" stroke-linejoin="round"/><polygon points="38.63,41.16 17.15,57.71 46.95,47.02" fill="#ff4a3c" stroke="#ff4a3c" stroke-width="0.5" stroke-linejoin="round"/><polygon points="61.37,43.64 50.00,15.35 46.95,47.02" fill="#d63429" stroke="#d63429" stroke-width="0.5" stroke-linejoin="round"/><polygon points="61.37,58.84 61.37,43.64 68.97,63.36" fill="#c63025" stroke="#c63025" stroke-width="0.5" stroke-linejoin="round"/><polygon points="46.95,62.22 61.37,58.84 68.97,63.36" fill="#c63025" stroke="#c63025" stroke-width="0.5" stroke-linejoin="round"/><polygon points="46.95,47.02 17.15,57.71 46.95,62.22" fill="#ca3126" stroke="#ca3126" stroke-width="0.5" stroke-linejoin="round"/><polygon points="61.37,43.64 46.95,47.02 68.97,63.36" fill="#ff4639" stroke="#ff4639" stroke-width="0.5" stroke-linejoin="round"/><polygon points="46.95,47.02 46.95,62.22 68.97,63.36" fill="#f43b2f" stroke="#f43b2f" stroke-width="0.5" stroke-linejoin="round"/></svg>