<svg xmlns="http://www.w3.org/2000/svg" viewBox="0 0 100 100"><polygon points="50.00,51.71 68.78,57.56 50.00,55.52" fill="#b088fc" stroke="#b088fc" stroke-width="0.5" stroke-linejoin="round"/><polygon points="31.22,57.56 50.00,55.52 50.00,58.29" fill="#a27de6" stroke="#a27de6" stroke-width="0.5" stroke-linejoin="round"/><polygon points="32.93,53.57 50.00,55.52 31.22,57.56" fill="#be92ff" stroke="#be92ff" stroke-width="0.5" stroke-linejoin="round"/><polygon points="50.00,55.52 68.78,57.56 65.36,59.97" fill="#a27de6" stroke="#a27de6" stroke-width="0.5" stroke-linejoin="round"/><polygon points="32.93,53.57 50.00,51.71 50.00,55.52" fill="#be92ff" stroke="#be92ff" stroke-width="0.5" stroke-linejoin="round"/><polygon points="50.00,55.52 65.36,59.97 50.00,58.29" fill="#a27de6" stroke="#a27de6" stroke-width="0.5" stroke-linejoin="round"/><polygon points="50.00,51.71 67.07,53.57 68.78,57.56" fill="#b088fc" stroke="#b088fc" stroke-width="0.5" stroke-linejoin="round"/><polygon points="31.22,57.56 50.00,58.29 34.64,59.97" fill="#a27de6" stroke="#a27de6" stroke-width="0.5" stroke-linejoin="round"/><polygon points="50.00,58.29 67.07,53.57 50.00,51.71" fill="#ce9fff" stroke="#ce9fff" stroke-width="0.5" stroke-linejoin="round"/><polygon points="34.64,59.97 50.00,58.29 50.00,51.71" fill="#c195ff" stroke="#c195ff" stroke-width="0.5" stroke-linejoin="round"/><polygon points="34.64,59.97 50.00,51.71 32.93,53.57" fill="#c195ff" stroke="#c195ff" stroke-width="0.5" stroke-linejoin="round"/><polygon points="50.00,58.29 65.36,59.97 67.07,53.57" fill="#ce9fff" stroke="#ce9fff" stroke-width="0.5" stroke-linejoin="round"/><polygon points="67.07,53.57 82.52,63.15 68.78,57.56" fill="#a781ee" stroke="#a781ee" stroke-width="0.5" stroke-linejoin="round"/><polygon points="17.48,63.15 31.22,57.56 34.64,59.97" fill="#a27de6" stroke="#a27de6" stroke-width="0.5" stroke-linejoin="round"/><polygon points="68.78,57.56 76.61,64.54 65.36,59.97" fill="#a27de6" stroke="#a27de6" stroke-width="0.5" stroke-linejoin="round"/><polygon points="20.44,58.65 32.93,53.57 31.22,57.56" fill="#cc9cff" stroke="#cc9cff" stroke-width="0.5" stroke-linejoin="round"/><polygon points="23.39,64.54 34.64,59.97 32.93,53.57" fill="#b38aff" stroke="#b38aff" stroke-width="0.5" stroke-linejoin="round"/><polygon points="65.36,59.97 79.56,58.65 67.07,53.57" fill="#d8a6ff" stroke="#d8a6ff" stroke-width="0.5" stroke-linejoin="round"/><polygon points="68.78,57.56 82.52,63.15 76.61,64.54" fill="#a27de6" stroke="#a27de6" stroke-width="0.5" stroke-linejoin="round"/><polygon points="20.44,58.65 31.22,57.56 17.48,63.15" fill="#cc9cff" stroke="#cc9cff" stroke-width="0.5" stroke-linejoin="round"/><polygon points="17.48,63.15 34.64,59.97 23.39,64.54" fill="#a27de6" stroke="#a27de6" stroke-width="0.5" stroke-linejoin="round"/><polygon points="67.07,53.57 79.56,58.65 82.52,63.15" fill="#a781ee" stroke="#a781ee" stroke-width="0.5" stroke-linejoin="round"/><polygon points="23.39,64.54 32.93,53.57 20.44,58.65" fill="#b38aff" stroke="#b38aff" stroke-width="0.5" stroke-linejoin="round"/><polygon points="65.36,59.97 76.61,64.54 79.56,58.65" fill="#d8a6ff" stroke="#d8a6ff" stroke-width="0.5" stroke-linejoin="round"/><polygon points="50.00,13.59 68.78,19.45 50.00,17.40" fill="#b088fc" stroke="#b088fc" stroke-width="0.5" stroke-linejoin="round"/><polygon points="31.22,19.45 50.00,17.40 50.00,20.18" fill="#a27de6" stroke="#a27de6" stroke-width="0.5" stroke-linejoin="round"/><polygon points="32.93,15.45 50.00,17.40 31.22,19.45" fill="#be92ff" stroke="#be92ff" stroke-width="0.5" stroke-linejoin="round"/><polygon points="50.00,17.40 68.78,19.45 65.36,21.85" fill="#a27de6" stroke="#a27de6" stroke-width="0.5" stroke-linejoin="round"/><polygon points="32.93,15.45 50.00,13.59 50.00,17.40" fill="#be92ff" stroke="#be92ff" stroke-width="0.5" stroke-linejoin="round"/><polygon points="50.00,17.40 65.36,21.85 50.00,20.18" fill="#a27de6" stroke="#a27de6" stroke-width="0.5" stroke-linejoin="round"/><polygon points="50.00,13.59 67.07,15.45 68.78,19.45" fill="#b088fc" stroke="#b088fc" stroke-width="0.5" stroke-linejoin="round"/><polygon points="82.52,63.15 80.72,70.79 76.61,64.54" fill="#a27de6" stroke="#a27de6" stroke-width="0.5" stroke-linejoin="round"/><polygon points="12.45,70.79 17.48,63.15 23.39,64.54" fill="#a27de6" stroke="#a27de6" stroke-width="0.5" stroke-linejoin="round"/><polygon points="31.22,19.45 50.00,20.18 34.64,21.85" fill="#a27de6" stroke="#a27de6" stroke-width="0.5" stroke-linejoin="round"/><polygon points="50.00,20.18 67.07,15.45 50.00,13.59" fill="#ce9fff" stroke="#ce9fff" stroke-width="0.5" stroke-linejoin="round"/><polygon points="79.56,58.65 87.55,70.79 82.52,63.15" fill="#a47fea" stroke="#a47fea" stroke-width="0.5" stroke-linejoin="round"/><polygon points="34.64,21.85 50.00,20.18 50.00,13.59" fill="#c195ff" stroke="#c195ff" stroke-width="0.5" stroke-linejoin="round"/><polygon points="15.86,65.59 20.44,58.65 17.48,63.15" fill="#d6a4ff" stroke="#d6a4ff" stroke-width="0.5" stroke-linejoin="round"/><polygon points="19.28,70.79 23.39,64.54 20.44,58.65" fill="#a982f1" stroke="#a982f1" stroke-width="0.5" stroke-linejoin="round"/><polygon points="34.64,21.85 50.00,13.59 32.93,15.45" fill="#c195ff" stroke="#c195ff" stroke-width="0.5" stroke-linejoin="round"/><polygon points="50.00,20.18 65.36,21.85 67.07,15.45" fill="#ce9fff" stroke="#ce9fff" stroke-width="0.5" stroke-linejoin="round"/><polygon points="76.61,64.54 84.14,65.59 79.56,58.65" fill="#dba8ff" stroke="#dba8ff" stroke-width="0.5" stroke-linejoin="round"/><polygon points="67.07,15.45 82.52,25.04 68.78,19.45" fill="#a781ee" stroke="#a781ee" stroke-width="0.5" stroke-linejoin="round"/><polygon points="17.48,25.04 31.22,19.45 34.64,21.85" fill="#a27de6" stroke="#a27de6" stroke-width="0.5" stroke-linejoin="round"/><polygon points="82.52,63.15 87.55,70.79 80.72,70.79" fill="#a27de6" stroke="#a27de6" stroke-width="0.5" stroke-linejoin="round"/><polygon points="68.78,19.45 76.61,26.43 65.36,21.85" fill="#a27de6" stroke="#a27de6" stroke-width="0.5" stroke-linejoin="round"/><polygon points="20.44,20.53 32.93,15.45 31.22,19.45" fill="#cc9cff" stroke="#cc9cff" stroke-width="0.5" stroke-linejoin="round"/><polygon points="15.86,65.59 17.48,63.15 12.45,70.79" fill="#d6a4ff" stroke="#d6a4ff" stroke-width="0.5" stroke-linejoin="round"/><polygon points="12.45,70.79 23.39,64.54 19.28,70.79" fill="#a27de6" stroke="#a27de6" stroke-width="0.5" stroke-linejoin="round"/><polygon points="23.39,26.43 34.64,21.85 32.93,15.45" fill="#b38aff" stroke="#b38aff" stroke-width="0.5" stroke-linejoin="round"/><polygon points="76.61,64.54 80.72,70.79 84.14,65.59" fill="#dba8ff" stroke="#dba8ff" stroke-width="0.5" stroke-linejoin="round"/><polygon points="65.36,21.85 79.56,20.53 67.07,15.45" fill="#d8a6ff" stroke="#d8a6ff" stroke-width="0.5" stroke-linejoin="round"/><polygon points="19.28,70.79 20.44,58.65 15.86,65.59" fill="#a982f1" stroke="#a982f1" stroke-width="0.5" stroke-linejoin="round"/><polygon points="79.56,58.65 84.14,65.59 87.55,70.79" fill="#a47fea" stroke="#a47fea" stroke-width="0.5" stroke-linejoin="round"/><polygon points="68.78,19.45 82.52,25.04 76.61,26.43" fill="#a27de6" stroke="#a27de6" stroke-width="0.5" stroke-linejoin="round"/><polygon points="20.44,20.53 31.22,19.45 17.48,25.04" fill="#cc9cff" stroke="#cc9cff" stroke-width="0.5" stroke-linejoin="round"/><polygon points="17.48,25.04 34.64,21.85 23.39,26.43" fill="#a27de6" stroke="#a27de6" stroke-width="0.5" stroke-linejoin="round"/><polygon points="67.07,15.45 79.56,20.53 82.52,25.04" fill="#a781ee" stroke="#a781ee" stroke-width="0.5" stroke-linejoin="round"/><polygon points="23.39,26.43 32.93,15.45 20.44,20.53" fill="#b38aff" stroke="#b38aff" stroke-width="0.5" stroke-linejoin="round"/><polygon points="65.36,21.85 76.61,26.43 79.56,20.53" fill="#d8a6ff" stroke="#d8a6ff" stroke-width="0.5" stroke-linejoin="round"/><polygon points="87.55,70.79 76.61,77.04 80.72,70.79" fill="#a27de6" stroke="#a27de6" stroke-width="0.5" stroke-linejoin="round"/><polygon points="23.39,77.04 19.28,70.79 15.86,65.59" fill="#a47fea" stroke="#a47fea" stroke-width="0.5" stroke-linejoin="round"/><polygon points="17.48,78.43 12.45,70.79 19.28,70.79" fill="#a27de6" stroke="#a27de6" stroke-width="0.5" stroke-linejoin="round"/><polygon points="84.14,65.59 82.52,78.43 87.55,70.79" fill="#a982f1" stroke="#a982f1" stroke-width="0.5" stroke-linejoin="round"/><polygon points="82.52,25.04 80.72,32.67 76.61,26.43" fill="#a27de6" stroke="#a27de6" stroke-width="0.5" stroke-linejoin="round"/><polygon points="12.45,32.67 17.48,25.04 23.39,26.43" fill="#a27de6" stroke="#a27de6" stroke-width="0.5" stroke-linejoin="round"/><polygon points="20.44,72.54 15.86,65.59 12.45,70.79" fill="#dba8ff" stroke="#dba8ff" stroke-width="0.5" stroke-linejoin="round"/><polygon points="80.72,70.79 79.56,72.54 84.14,65.59" fill="#d6a4ff" stroke="#d6a4ff" stroke-width="0.5" stroke-linejoin="round"/><polygon points="79.56,20.53 87.55,32.67 82.52,25.04" fill="#a47fea" stroke="#a47fea" stroke-width="0.5" stroke-linejoin="round"/><polygon points="15.86,27.48 20.44,20.53 17.48,25.04" fill="#d6a4ff" stroke="#d6a4ff" stroke-width="0.5" stroke-linejoin="round"/><polygon points="19.28,32.67 23.39,26.43 20.44,20.53" fill="#a982f1" stroke="#a982f1" stroke-width="0.5" stroke-linejoin="round"/><polygon points="76.61,26.43 84.14,27.48 79.56,20.53" fill="#dba8ff" stroke="#dba8ff" stroke-width="0.5" stroke-linejoin="round"/><polygon points="87.55,70.79 82.52,78.43 76.61,77.04" fill="#a27de6" stroke="#a27de6" stroke-width="0.5" stroke-linejoin="round"/><polygon points="17.48,78.43 19.28,70.79 23.39,77.04" fill="#a27de6" stroke="#a27de6" stroke-width="0.5" stroke-linejoin="round"/><polygon points="80.72,70.79 76.61,77.04 79.56,72.54" fill="#d6a4ff" stroke="#d6a4ff" stroke-width="0.5" stroke-linejoin="round"/><polygon points="82.52,25.04 87.55,32.67 80.72,32.67" fill="#a27de6" stroke="#a27de6" stroke-width="0.5" stroke-linejoin="round"/><polygon points="23.39,77.04 15.86,65.59 20.44,72.54" fill="#a47fea" stroke="#a47fea" stroke-width="0.5" stroke-linejoin="round"/><polygon points="20.44,72.54 12.45,70.79 17.48,78.43" fill="#dba8ff" stroke="#dba8ff" stroke-width="0.5" stroke-linejoin="round"/><polygon points="15.86,27.48 17.48,25.04 12.45,32.67" fill="#d6a4ff" stroke="#d6a4ff" stroke-width="0.5" stroke-linejoin="round"/><polygon points="12.45,32.67 23.39,26.43 19.28,32.67" fill="#a27de6" stroke="#a27de6" stroke-width="0.5" stroke-linejoin="round"/><polygon points="84.14,65.59 79.56,72.54 82.52,78.43" fill="#a982f1" stroke="#a982f1" stroke-width="0.5" stroke-linejoin="round"/><polygon points="76.61,26.43 80.72,32.67 84.14,27.48" fill="#dba8ff" stroke="#dba8ff" stroke-width="0.5" stroke-linejoin="round"/><polygon points="19.28,32.67 20.44,20.53 15.86,27.48" fill="#a982f1" stroke="#a982f1" stroke-width="0.5" stroke-linejoin="round"/><polygon points="79.56,20.53 84.14,27.48 87.55,32.67" fill="#a47fea" stroke="#a47fea" stroke-width="0.5" stroke-linejoin="round"/><polygon points="82.52,78.43 65.36,81.61 76.61,77.04" fill="#a27de6" stroke="#a27de6" stroke-width="0.5" stroke-linejoin="round"/><polygon points="34.64,81.61 23.39,77.04 20.44,72.54" fill="#a781ee" stroke="#a781ee" stroke-width="0.5" stroke-linejoin="round"/><polygon points="31.22,84.02 17.48,78.43 23.39,77.04" fill="#a27de6" stroke="#a27de6" stroke-width="0.5" stroke-linejoin="round"/><polygon points="76.61,77.04 67.07,77.62 79.56,72.54" fill="#cc9cff" stroke="#cc9cff" stroke-width="0.5" stroke-linejoin="round"/><polygon points="32.93,77.62 20.44,72.54 17.48,78.43" fill="#d8a6ff" stroke="#d8a6ff" stroke-width="0.5" stroke-linejoin="round"/><polygon points="79.56,72.54 68.78,84.02 82.52,78.43" fill="#b38aff" stroke="#b38aff" stroke-width="0.5" stroke-linejoin="round"/><polygon points="87.55,32.67 76.61,38.92 80.72,32.67" fill="#a27de6" stroke="#a27de6" stroke-width="0.5" stroke-linejoin="round"/><polygon points="23.39,38.92 19.28,32.67 15.86,27.48" fill="#a47fea" stroke="#a47fea" stroke-width="0.5" stroke-linejoin="round"/><polygon points="76.61,77.04 65.36,81.61 67.07,77.62" fill="#cc9cff" stroke="#cc9cff" stroke-width="0.5" stroke-linejoin="round"/><polygon points="31.22,84.02 23.39,77.04 34.64,81.61" fill="#a27de6" stroke="#a27de6" stroke-width="0.5" stroke-linejoin="round"/><polygon points="17.48,40.31 12.45,32.67 19.28,32.67" fill="#a27de6" stroke="#a27de6" stroke-width="0.5" stroke-linejoin="round"/><polygon points="84.14,27.48 82.52,40.31 87.55,32.67" fill="#a982f1" stroke="#a982f1" stroke-width="0.5" stroke-linejoin="round"/><polygon points="20.44,34.42 15.86,27.48 12.45,32.67" fill="#dba8ff" stroke="#dba8ff" stroke-width="0.5" stroke-linejoin="round"/><polygon points="80.72,32.67 79.56,34.42 84.14,27.48" fill="#d6a4ff" stroke="#d6a4ff" stroke-width="0.5" stroke-linejoin="round"/><polygon points="82.52,78.43 68.78,84.02 65.36,81.61" fill="#a27de6" stroke="#a27de6" stroke-width="0.5" stroke-linejoin="round"/><polygon points="34.64,81.61 20.44,72.54 32.93,77.62" fill="#a781ee" stroke="#a781ee" stroke-width="0.5" stroke-linejoin="round"/><polygon points="32.93,77.62 17.48,78.43 31.22,84.02" fill="#d8a6ff" stroke="#d8a6ff" stroke-width="0.5" stroke-linejoin="round"/><polygon points="79.56,72.54 67.07,77.62 68.78,84.02" fill="#b38aff" stroke="#b38aff" stroke-width="0.5" stroke-linejoin="round"/><polygon points="50.00,83.29 34.64,81.61 32.93,77.62" fill="#b088fc" stroke="#b088fc" stroke-width="0.5" stroke-linejoin="round"/><polygon points="68.78,84.02 50.00,83.29 65.36,81.61" fill="#a27de6" stroke="#a27de6" stroke-width="0.5" stroke-linejoin="round"/><polygon points="87.55,32.67 82.52,40.31 76.61,38.92" fill="#a27de6" stroke="#a27de6" stroke-width="0.5" stroke-linejoin="round"/><polygon points="17.48,40.31 19.28,32.67 23.39,38.92" fill="#a27de6" stroke="#a27de6" stroke-width="0.5" stroke-linejoin="round"/><polygon points="80.72,32.67 76.61,38.92 79.56,34.42" fill="#d6a4ff" stroke="#d6a4ff" stroke-width="0.5" stroke-linejoin="round"/><polygon points="23.39,38.92 15.86,27.48 20.44,34.42" fill="#a47fea" stroke="#a47fea" stroke-width="0.5" stroke-linejoin="round"/><polygon points="65.36,81.61 50.00,83.29 50.00,79.48" fill="#be92ff" stroke="#be92ff" stroke-width="0.5" stroke-linejoin="round"/><polygon points="20.44,34.42 12.45,32.67 17.48,40.31" fill="#dba8ff" stroke="#dba8ff" stroke-width="0.5" stroke-linejoin="round"/><polygon points="50.00,86.06 34.64,81.61 50.00,83.29" fill="#a27de6" stroke="#a27de6" stroke-width="0.5" stroke-linejoin="round"/><polygon points="65.36,81.61 50.00,79.48 67.07,77.62" fill="#be92ff" stroke="#be92ff" stroke-width="0.5" stroke-linejoin="round"/><polygon points="84.14,27.48 79.56,34.42 82.52,40.31" fill="#a982f1" stroke="#a982f1" stroke-width="0.5" stroke-linejoin="round"/><polygon points="50.00,86.06 31.22,84.02 34.64,81.61" fill="#a27de6" stroke="#a27de6" stroke-width="0.5" stroke-linejoin="round"/><polygon points="50.00,83.29 32.93,77.62 50.00,79.48" fill="#b088fc" stroke="#b088fc" stroke-width="0.5" stroke-linejoin="round"/><polygon points="68.78,84.02 50.00,86.06 50.00,83.29" fill="#a27de6" stroke="#a27de6" stroke-width="0.5" stroke-linejoin="round"/><polygon points="50.00,79.48 32.93,77.62 31.22,84.02" fill="#ce9fff" stroke="#ce9fff" stroke-width="0.5" stroke-linejoin="round"/><polygon points="67.07,77.62 50.00,86.06 68.78,84.02" fill="#c195ff" stroke="#c195ff" stroke-width="0.5" stroke-linejoin="round"/><polygon points="67.07,77.62 50.00,79.48 50.00,86.06" fill="#c195ff" stroke="#c195ff" stroke-width="0.5" stroke-linejoin="round"/><polygon points="50.00,79.48 31.22,84.02 50.00,86.06" fill="#ce9fff" stroke="#ce9fff" stroke-width="0.5" stroke-linejoin="round"/><polygon points="82.52,40.31 65.36,43.50 76.61,38.92" fill="#a27de6" stroke="#a27de6" stroke-width="0.5" stroke-linejoin="round"/><polygon points="34.64,43.50 23.39,38.92 20.44,34.42" fill="#a781ee" stroke="#a781ee" stroke-width="0.5" stroke-linejoin="round"/><polygon points="31.22,45.90 17.48,40.31 23.39,38.92" fill="#a27de6" stroke="#a27de6" stroke-width="0.5" stroke-linejoin="round"/><polygon points="76.61,38.92 67.07,39.50 79.56,34.42" fill="#cc9cff" stroke="#cc9cff" stroke-width="0.5" stroke-linejoin="round"/><polygon points="32.93,39.50 20.44,34.42 17.48,40.31" fill="#d8a6ff" stroke="#d8a6ff" stroke-width="0.5" stroke-linejoin="round"/><polygon points="79.56,34.42 68.78,45.90 82.52,40.31" fill="#b38aff" stroke="#b38aff" stroke-width="0.5" stroke-linejoin="round"/><polygon points="76.61,38.92 65.36,43.50 67.07,39.50" fill="#cc9cff" stroke="#cc9cff" stroke-width="0.5" stroke-linejoin="round"/><polygon points="31.22,45.90 23.39,38.92 34.64,43.50" fill="#a27de6" stroke="#a27de6" stroke-width="0.5" stroke-linejoin="round"/><polygon points="82.52,40.31 68.78,45.90 65.36,43.50" fill="#a27de6" stroke="#a27de6" stroke-width="0.5" stroke-linejoin="round"/><polygon points="34.64,43.50 20.44,34.42 32.93,39.50" fill="#a781ee" stroke="#a781ee" stroke-width="0.5" stroke-linejoin="round"/><polygon points="32.93,39.50 17.48,40.31 31.22,45.90" fill="#d8a6ff" stroke="#d8a6ff" stroke-width="0.5" stroke-linejoin="round"/><polygon points="79.56,34.42 67.07,39.50 68.78,45.90" fill="#b38aff" stroke="#b38aff" stroke-width="0.5" stroke-linejoin="round"/><polygon points="50.00,45.17 34.64,43.50 32.93,39.50" fill="#b088fc" stroke="#b088fc" stroke-width="0.5" stroke-linejoin="round"/><polygon points="68.78,45.90 50.00,45.17 65.36,43.50" fill="#a27de6" stroke="#a27de6" stroke-width="0.5" stroke-linejoin="round"/><polygon points="65.36,43.50 50.00,45.17 50.00,41.36" fill="#be92ff" stroke="#be92ff" stroke-width="0.5" stroke-linejoin="round"/><polygon points="50.00,47.95 34.64,43.50 50.00,45.17" fill="#a27de6" stroke="#a27de6" stroke-width="0.5" stroke-linejoin="round"/><polygon points="65.36,43.50 50.00,41.36 67.07,39.50" fill="#be92ff" stroke="#be92ff" stroke-width="0.5" stroke-linejoin="round"/><polygon points="50.00,47.95 31.22,45.90 34.64,43.50" fill="#a27de6" stroke="#a27de6" stroke-width="0.5" stroke-linejoin="round"/><polygon points="50.00,45.17 32.93,39.50 50.00,41.36" fill="#b088fc" stroke="#b088fc" stroke-width="0.5" stroke-linejoin="round"/><polygon points="68.78,45.90 50.00,47.95 50.00,45.17" fill="#a27de6" stroke="#a27de6" stroke-width="0.5" stroke-linejoin="round"/><polygon points="50.00,41.36 32.93,39.50 31.22,45.90" fill="#ce9fff" stroke="#ce9fff" stroke-width="0.5" stroke-linejoin="round"/><polygon points="67.07,39.50 50.00,47.95 68.78,45.90" fill="#c195ff" stroke="#c195ff" stroke-width="0.5" stroke-linejoin="round"/><polygon points="67.07,39.50 50.00,41.36 50.00,47.95" fill="#c195ff" stroke="#c195ff" stroke-width="0.5" stroke-linejoin="round"/><polygon points="50.00,41.36 31.22,45.90 50.00,47.95" fill="#ce9fff" stroke="#ce9fff" stroke-width="0.5" stroke-linejoin="round"/><polygon points="72.01,35.72 62.49,64.79 58.36,61.88" fill="#18326d" stroke="#18326d" stroke-width="0.5" stroke-linejoin="round"/><polygon points="58.36,61.88 46.25,81.62 42.12,78.71" fill="#18326d" stroke="#18326d" stroke-width="0.5" stroke-linejoin="round"/><polygon points="58.36,61.88 62.49,64.79 46.25,81.62" fill="#3060bb" stroke="#3060bb" stroke-width="0.5" stroke-linejoin="round"/><polygon points="72.01,35.72 76.13,38.63 62.49,64.79" fill="#3060bb" stroke="#3060bb" stroke-width="0.5" stroke-linejoin="round"/><polygon points="72.01,9.34 76.13,38.63 72.01,35.72" fill="#18326d" stroke="#18326d" stroke-width="0.5" stroke-linejoin="round"/><polygon points="76.13,38.63 63.19,64.29 62.49,64.79" fill="#366dd0" stroke="#366dd0" stroke-width="0.5" stroke-linejoin="round"/><polygon points="42.12,78.71 46.25,81.62 30.01,72.41" fill="#3060bb" stroke="#3060bb" stroke-width="0.5" stroke-linejoin="round"/><polygon points="62.49,64.79 51.50,76.41 46.25,81.62" fill="#366dd0" stroke="#366dd0" stroke-width="0.5" stroke-linejoin="round"/><polygon points="42.12,78.71 30.01,72.41 25.88,69.51" fill="#18326d" stroke="#18326d" stroke-width="0.5" stroke-linejoin="round"/><polygon points="72.01,9.34 76.13,12.24 76.13,38.63" fill="#3060bb" stroke="#3060bb" stroke-width="0.5" stroke-linejoin="round"/><polygon points="62.49,64.79 63.19,64.29 51.50,76.41" fill="#21448a" stroke="#21448a" stroke-width="0.5" stroke-linejoin="round"/><polygon points="12.24,23.37 58.36,61.88 42.12,78.71" fill="#0c1a45" stroke="#0c1a45" stroke-width="0.5" stroke-linejoin="round"/><polygon points="12.24,23.37 72.01,35.72 58.36,61.88" fill="#0c1a45" stroke="#0c1a45" stroke-width="0.5" stroke-linejoin="round"/><polygon points="76.13,38.63 73.02,45.46 63.19,64.29" fill="#21448a" stroke="#21448a" stroke-width="0.5" stroke-linejoin="round"/><polygon points="76.13,12.24 73.02,45.46 76.13,38.63" fill="#366dd0" stroke="#366dd0" stroke-width="0.5" stroke-linejoin="round"/><polygon points="46.25,81.62 51.50,76.41 39.81,69.78" fill="#21448a" stroke="#21448a" stroke-width="0.5" stroke-linejoin="round"/><polygon points="12.24,23.37 72.01,9.34 72.01,35.72" fill="#0c1a45" stroke="#0c1a45" stroke-width="0.5" stroke-linejoin="round"/><polygon points="46.25,81.62 39.81,69.78 30.01,72.41" fill="#366dd0" stroke="#366dd0" stroke-width="0.5" stroke-linejoin="round"/><polygon points="12.24,23.37 42.12,78.71 25.88,69.51" fill="#0c1a45" stroke="#0c1a45" stroke-width="0.5" stroke-linejoin="round"/><polygon points="42.12,10.19 76.13,12.24 72.01,9.34" fill="#2651b2" stroke="#2651b2" stroke-width="0.5" stroke-linejoin="round"/><polygon points="76.13,12.24 73.02,26.46 73.02,45.46" fill="#21448a" stroke="#21448a" stroke-width="0.5" stroke-linejoin="round"/><polygon points="73.02,45.46 64.05,62.86 63.19,64.29" fill="#6594d6" stroke="#6594d6" stroke-width="0.5" stroke-linejoin="round"/><polygon points="63.19,64.29 57.88,69.25 51.50,76.41" fill="#6594d6" stroke="#6594d6" stroke-width="0.5" stroke-linejoin="round"/><polygon points="25.88,69.51 30.01,72.41 16.37,52.66" fill="#3060bb" stroke="#3060bb" stroke-width="0.5" stroke-linejoin="round"/><polygon points="73.02,26.46 69.23,52.92 73.02,45.46" fill="#6594d6" stroke="#6594d6" stroke-width="0.5" stroke-linejoin="round"/><polygon points="46.25,13.09 73.02,26.46 76.13,12.24" fill="#4386ff" stroke="#4386ff" stroke-width="0.5" stroke-linejoin="round"/><polygon points="63.19,64.29 64.05,62.86 57.88,69.25" fill="#85bcff" stroke="#85bcff" stroke-width="0.5" stroke-linejoin="round"/><polygon points="25.88,69.51 16.37,52.66 12.24,49.76" fill="#18326d" stroke="#18326d" stroke-width="0.5" stroke-linejoin="round"/><polygon points="12.24,23.37 42.12,10.19 72.01,9.34" fill="#0c1a45" stroke="#0c1a45" stroke-width="0.5" stroke-linejoin="round"/><polygon points="42.12,10.19 46.25,13.09 76.13,12.24" fill="#4388ff" stroke="#4388ff" stroke-width="0.5" stroke-linejoin="round"/><polygon points="73.02,45.46 69.23,52.92 64.05,62.86" fill="#85bcff" stroke="#85bcff" stroke-width="0.5" stroke-linejoin="round"/><polygon points="51.50,76.41 51.70,65.76 39.81,69.78" fill="#6594d6" stroke="#6594d6" stroke-width="0.5" stroke-linejoin="round"/><polygon points="12.24,23.37 25.88,69.51 12.24,49.76" fill="#0c1a45" stroke="#0c1a45" stroke-width="0.5" stroke-linejoin="round"/><polygon points="30.01,72.41 39.81,69.78 29.98,55.56" fill="#21448a" stroke="#21448a" stroke-width="0.5" stroke-linejoin="round"/><polygon points="51.50,76.41 57.88,69.25 51.70,65.76" fill="#85bcff" stroke="#85bcff" stroke-width="0.5" stroke-linejoin="round"/><polygon points="73.02,26.46 69.23,42.89 69.23,52.92" fill="#85bcff" stroke="#85bcff" stroke-width="0.5" stroke-linejoin="round"/><polygon points="30.01,72.41 29.98,55.56 16.37,52.66" fill="#366dd0" stroke="#366dd0" stroke-width="0.5" stroke-linejoin="round"/><polygon points="46.25,13.09 51.50,27.07 73.02,26.46" fill="#2b59b8" stroke="#2b59b8" stroke-width="0.5" stroke-linejoin="round"/><polygon points="51.50,27.07 69.23,42.89 73.02,26.46" fill="#80bcff" stroke="#80bcff" stroke-width="0.5" stroke-linejoin="round"/><polygon points="12.24,23.37 46.25,13.09 42.12,10.19" fill="#2a58c2" stroke="#2a58c2" stroke-width="0.5" stroke-linejoin="round"/><polygon points="39.81,69.78 51.70,65.76 46.52,58.25" fill="#85bcff" stroke="#85bcff" stroke-width="0.5" stroke-linejoin="round"/><polygon points="39.81,69.78 46.52,58.25 29.98,55.56" fill="#6594d6" stroke="#6594d6" stroke-width="0.5" stroke-linejoin="round"/><polygon points="46.52,48.22 57.88,69.25 64.05,62.86" fill="#76a8ec" stroke="#76a8ec" stroke-width="0.5" stroke-linejoin="round"/><polygon points="46.52,48.22 64.05,62.86 69.23,52.92" fill="#76a8ec" stroke="#76a8ec" stroke-width="0.5" stroke-linejoin="round"/><polygon points="12.24,49.76 16.37,52.66 16.37,26.28" fill="#3b78ee" stroke="#3b78ee" stroke-width="0.5" stroke-linejoin="round"/><polygon points="46.52,48.22 69.23,52.92 69.23,42.89" fill="#76a8ec" stroke="#76a8ec" stroke-width="0.5" stroke-linejoin="round"/><polygon points="46.52,48.22 51.70,65.76 57.88,69.25" fill="#76a8ec" stroke="#76a8ec" stroke-width="0.5" stroke-linejoin="round"/><polygon points="51.50,27.07 57.88,43.21 69.23,42.89" fill="#a4e9ff" stroke="#a4e9ff" stroke-width="0.5" stroke-linejoin="round"/><polygon points="12.24,49.76 16.37,26.28 12.24,23.37" fill="#204496" stroke="#204496" stroke-width="0.5" stroke-linejoin="round"/><polygon points="16.37,26.28 51.50,27.07 46.25,13.09" fill="#468dff" stroke="#468dff" stroke-width="0.5" stroke-linejoin="round"/><polygon points="16.37,52.66 29.98,55.56 29.98,36.57" fill="#2750a5" stroke="#2750a5" stroke-width="0.5" stroke-linejoin="round"/><polygon points="12.24,23.37 16.37,26.28 46.25,13.09" fill="#4791ff" stroke="#4791ff" stroke-width="0.5" stroke-linejoin="round"/><polygon points="46.52,48.22 69.23,42.89 57.88,43.21" fill="#76a8ec" stroke="#76a8ec" stroke-width="0.5" stroke-linejoin="round"/><polygon points="46.52,48.22 46.52,58.25 51.70,65.76" fill="#76a8ec" stroke="#76a8ec" stroke-width="0.5" stroke-linejoin="round"/><polygon points="29.98,36.57 57.88,43.21 51.50,27.07" fill="#86c7ff" stroke="#86c7ff" stroke-width="0.5" stroke-linejoin="round"/><polygon points="29.98,55.56 46.52,58.25 46.52,48.22" fill="#97d5ff" stroke="#97d5ff" stroke-width="0.5" stroke-linejoin="round"/><polygon points="16.37,52.66 29.98,36.57 16.37,26.28" fill="#3e7cef" stroke="#3e7cef" stroke-width="0.5" stroke-linejoin="round"/><polygon points="16.37,26.28 29.98,36.57 51.50,27.07" fill="#2e5ec4" stroke="#2e5ec4" stroke-width="0.5" stroke-linejoin="round"/><polygon points="29.98,55.56 46.52,48.22 29.98,36.57" fill="#74abf9" stroke="#74abf9" stroke-width="0.5" stroke-linejoin="round"/><polygon points="29.98,36.57 46.52,48.22 57.88,43.21" fill="#acf4ff" stroke="#acf4ff" stroke-width="0.5" stroke-linejoin="round"/></svg>